<?xml version="1.0" encoding="UTF-8" standalone="no"?>
<!-- Created with Inkscape (http://www.inkscape.org/) -->

<svg
   width="126.32198mm"
   height="120.46035mm"
   viewBox="0 0 126.32198 120.46035"
   version="1.1"
   id="svg5"
   xml:space="preserve"
   sodipodi:docname="palette.svg"
   inkscape:version="1.2.1 (9c6d41e410, 2022-07-14, custom)"
   xmlns:inkscape="http://www.inkscape.org/namespaces/inkscape"
   xmlns:sodipodi="http://sodipodi.sourceforge.net/DTD/sodipodi-0.dtd"
   xmlns="http://www.w3.org/2000/svg"
   xmlns:svg="http://www.w3.org/2000/svg"><sodipodi:namedview
     id="namedview7"
     pagecolor="#505050"
     bordercolor="#eeeeee"
     borderopacity="1"
     inkscape:showpageshadow="0"
     inkscape:pageopacity="0"
     inkscape:pagecheckerboard="0"
     inkscape:deskcolor="#505050"
     inkscape:document-units="mm"
     showgrid="false"
     inkscape:zoom="0.70710678"
     inkscape:cx="293.44931"
     inkscape:cy="-135.7645"
     inkscape:window-width="2558"
     inkscape:window-height="1418"
     inkscape:window-x="0"
     inkscape:window-y="0"
     inkscape:window-maximized="1"
     inkscape:current-layer="layer1" /><defs
     id="defs2" /><g
     inkscape:label="Livello 1"
     inkscape:groupmode="layer"
     id="layer1"
     transform="translate(-31.673488,-154.2073)"><path
       style="fill:#1e847f;fill-opacity:1;stroke:#ffffff;stroke-width:0.297;stroke-dasharray:none;stroke-opacity:1"
       d="m 64.461908,200.24201 c -4.22523,-0.89168 -6.29923,-4.41255 -4.2439,-7.20452 2.78127,-3.77809 10.40133,-3.54429 12.75988,0.39149 2.31437,3.86205 -2.86491,8.00561 -8.51598,6.81303 z"
       id="path4610" /><path
       style="fill:#000000;fill-opacity:0;stroke:#ffffff;stroke-width:0.297;stroke-dasharray:none;stroke-opacity:1"
       d="m 85.090728,201.43837 c -4.77123,-0.59542 -6.99697,-4.44074 -4.17927,-7.22033 3.02609,-2.98515 9.47551,-2.22325 11.13398,1.31531 1.45591,3.10637 -2.49562,6.46149 -6.95471,5.90502 z"
       id="path4612" /><path
       style="fill:#f3ca20;fill-opacity:1;stroke:#ffffff;stroke-width:0.297;stroke-dasharray:none;stroke-opacity:1"
       d="m 99.133528,208.61938 c -4.34365,-0.66554 -6.41305,-4.21844 -3.98074,-6.83442 3.15973,-3.39832 10.445812,-2.15412 11.264732,1.92361 0.57858,2.88097 -3.33066,5.51655 -7.283992,4.91081 z"
       id="path4614" /><path
       style="fill:#000000;fill-opacity:0;stroke:#ffffff;stroke-width:0.297;stroke-dasharray:none;stroke-opacity:1"
       d="m 47.883198,209.05939 c -8.62656,-1.34524 -7.22017,-10.59003 1.61292,-10.6024 3.32546,0.0946 7.98363,2.54342 7.43006,6.09377 -0.41063,2.99589 -4.77858,5.17367 -9.04298,4.50867 z"
       id="path4616" /><path
       style="fill:#ff2c83;fill-opacity:1;stroke:#ffffff;stroke-width:0.297;stroke-dasharray:none;stroke-opacity:1"
       d="m 44.132548,223.59613 c -3.52129,-0.64385 -5.83155,-3.23631 -5.17653,-5.80883 1.10508,-4.34004 8.9934,-5.66448 12.58086,-2.11232 3.90454,3.86612 -0.98336,9.09519 -7.40433,7.92115 z"
       id="path4618" /><path
       style="fill:#ffa98d;fill-opacity:1;stroke:#ffffff;stroke-width:0.297107;stroke-linecap:round;stroke-linejoin:round;stroke-dasharray:none;stroke-dashoffset:0;stroke-opacity:1;paint-order:normal"
       d="m 76.369058,232.12819 c -5.60901,-0.88453 -6.67711,-6.38339 -1.60963,-8.28675 5.07698,-1.90694 10.6294,1.7016 8.59446,5.58556 -0.99338,1.89599 -4.20789,3.13911 -6.98483,2.70119 z"
       id="path4620" /><path
       style="fill:#000000;fill-opacity:0;stroke:#ffffff;stroke-width:0.297;stroke-dasharray:none;stroke-opacity:1"
       d="m 57.689438,234.45447 c -3.91706,-0.40804 -6.32743,-3.31401 -5.00575,-6.03499 1.82538,-3.75796 9.24145,-4.04283 11.67295,-0.44839 2.21552,3.27515 -1.62394,7.00874 -6.6672,6.48338 z"
       id="path4622" /><path
       style="fill:#ffffff;stroke-width:0.0975195"
       d="m 78.153478,274.32677 c -0.98683,-0.65951 -1.09405,-1.31849 -0.39697,-2.43978 0.45061,-0.72483 3.91317,-6.24207 6.1344,-9.77453 1.96679,-3.12783 10.09539,-15.98545 11.55487,-18.27722 1.39984,-2.19812 1.37938,-1.99538 0.25253,-2.50163 -0.68981,-0.22689 -0.83551,-0.29156 -0.96454,-0.34102 -0.14832,-0.0568 -0.21329,-0.0886 -1.0701,-0.39169 -2.73083,-0.72052 -5.87653,-0.34906 -16.08193,1.89904 -16.64963,3.66767 -25.87424,2.53915 -33.7253,-2.15212 -0.97548,-0.58288 -2.49343,-1.9324 -2.82229,-2.24955 -0.31401,-0.30283 -3.55358,-3.36087 -5.00111,-5.53423 -5.60232,-8.41151 -5.83649,-21.93804 -0.52082,-30.08476 5.25604,-8.05533 15.63332,-14.33615 27.55082,-16.67506 9.82824,-1.92887 23.75156,-0.78708 30.90197,2.53414 1.86506,0.81289 2.63813,1.1144 3.91592,1.75263 5.562562,2.7933 11.913552,7.39052 15.279402,11.06011 0.8894,0.96967 0.97477,1.01632 1.08149,0.59109 0.0882,-0.35136 1.66597,-4.56181 2.39145,-6.38178 1.01174,-2.53812 1.47238,-3.5107 1.66275,-3.5107 0.13175,0 0.28434,-0.33372 0.68001,-1.48718 0.28057,-0.81794 1.05947,-2.97922 1.73089,-4.80283 0.67141,-1.82361 1.36483,-3.71062 1.54093,-4.19334 1.39033,-3.81116 2.51485,-6.74475 2.61673,-6.82636 0.067,-0.0536 0.20315,-0.40471 0.30265,-0.78016 0.7198,-2.71604 2.56976,-7.36272 2.93127,-7.36272 0.19058,0 0.21322,-0.0799 -0.34991,1.23473 -1.01879,2.37832 -2.52123,6.82959 -2.38151,7.05567 0.17752,0.28722 0.35029,0.0182 0.73669,-1.1471 0.79326,-2.39233 2.55398,-6.97281 2.78467,-7.24429 0.07,-0.0824 0.21054,-0.4115 0.31233,-0.7314 0.20809,-0.65399 1.30264,-3.06628 1.39186,-3.06756 0.10529,-0.002 -1.69995,4.97572 -3.5721,9.84864 -0.9619,2.50369 -1.01603,2.7242 -0.66994,2.72905 0.62087,0.009 3.56165,-8.15488 4.33196,-12.02551 0.17218,-0.86518 0.22605,-0.58838 0.10394,0.53409 -0.29485,2.71024 -1.5825,6.71269 -3.53758,10.99599 -0.21447,0.46987 -0.25519,0.64303 -0.1644,0.69914 0.0904,0.0559 -0.13104,0.92604 -0.88347,3.47126 -1.46315,4.94936 -3.22895,10.7606 -3.84016,12.63791 -0.45759,1.40546 -0.5113,1.64642 -0.38297,1.71824 0.16105,0.0901 -1.01778,3.72858 -3.37985,10.43185 -1.07744,3.05765 -1.07744,3.05765 -0.78719,3.47951 0.36055,0.52406 0.36756,0.4495 -0.11129,1.18446 -0.45581,0.69961 -0.43604,0.68742 -0.66207,0.40828 -0.16487,-0.2036 -0.17711,-0.18341 -0.57762,0.95241 -0.36939,1.04758 -0.56612,1.40209 -2.02307,3.64558 -2.52547,3.88887 -3.05589,4.70726 -4.23367,6.53221 -0.60577,0.93862 -1.37253,2.12348 -1.70391,2.63302 -0.33138,0.50954 -1.0786,1.67246 -1.6605,2.58427 -1.12431,1.76175 -1.28011,1.97937 -1.18077,1.64929 0.12703,-0.42212 -2.58004,-0.99856 -4.08438,-0.86972 -3.014732,0.25821 -5.264302,2.40366 -4.467402,4.26063 1.18645,2.76473 3.822632,5.23941 4.479042,4.20465 0.19734,-0.31109 0.5428,-0.85086 0.76769,-1.1995 0.22488,-0.34863 1.40703,-2.19175 2.62699,-4.09581 3.24565,-5.06568 8.79755,-13.65654 10.8714,-16.82211 0.52708,-0.80454 1.56134,-2.38435 2.29837,-3.5107 8.84275,-13.5137 15.47274,-22.93557 16.07852,-22.84915 0.17308,0.0247 0.45989,-0.34989 1.73212,-2.26212 1.81886,-2.73383 2.73189,-4.07313 5.90687,-8.66457 4.38908,-6.34723 5.50107,-7.91827 5.57305,-7.87378 0.0392,0.0242 0.39634,-0.51241 0.79358,-1.19256 2.51798,-4.31115 6.99007,-9.92553 8.90612,-11.18097 0.46781,-0.30652 0.19995,-0.27704 -0.40306,0.0444 -1.92593,1.02651 -6.64492,6.9156 -8.83163,11.02146 -0.57657,1.08261 -0.6383,1.15732 -0.40137,0.48576 0.43637,-1.23678 1.77899,-3.51047 3.56503,-6.03723 2.24103,-3.17046 5.13965,-5.85784 6.31872,-5.85824 0.19855,-6e-5 0.1186,0.1207 -0.58511,0.88372 -4.59826,4.98587 -9.79415,12.545 -8.57363,12.47317 0.03,-0.002 0.51528,-0.71443 1.07846,-1.58371 2.12465,-3.27946 4.63526,-6.77763 6.8748,-9.57907 2.149,-2.68818 2.3677,-2.81969 0.76341,-0.45908 -1.59166,2.34203 -3.31904,4.84351 -4.79523,6.94413 -2.13316,3.03548 -2.79922,3.9772 -3.16093,4.4691 -0.21012,0.28575 -0.36717,0.53214 -0.34899,0.54752 0.4381,0.37073 1.34303,-0.55435 3.7388,-3.82205 0.42752,-0.58312 0.64421,-0.79893 0.80453,-0.80128 0.1286,-0.002 0.21942,-0.0638 0.21942,-0.14949 0,-0.0804 0.0658,-0.14628 0.14628,-0.14628 0.23813,0 0.16851,0.19698 -0.18491,0.52321 -0.18216,0.16814 -0.39962,0.47093 -0.48323,0.67286 -0.14278,0.34481 -1.73263,2.48829 -2.72944,3.67991 -0.38036,0.4547 -0.42655,0.55304 -0.30339,0.646 0.17347,0.13092 -8.4412,14.60569 -11.03995,18.54989 -0.65999,1.00167 -0.71309,1.11748 -0.56271,1.22744 0.31219,0.22828 -6.54504,10.6655 -19.61004,29.84795 -0.87674,1.28726 -2.23639,3.28397 -3.02146,4.43714 -0.78506,1.15317 -1.94,2.84574 -2.56653,3.76127 -0.62654,0.91553 -2.10459,3.07692 -3.28458,4.80309 -1.17998,1.72616 -2.46358,3.60234 -2.85244,4.16929 -0.8585,1.25166 -0.8629,1.15467 0.0488,1.07483 2.26977,-0.1988 3.98994,-1.22405 4.73834,-2.82414 0.31821,-0.68034 0.17787,-1.26144 -0.63305,-2.62132 -0.18431,-0.30908 1.57482,-3.48705 1.93022,-3.48705 0.28293,0 0.86301,3.22772 0.76109,4.2349 -0.90181,8.91144 -14.459532,7.90271 -18.146822,-1.35016 -2.82149,-7.08022 3.84296,-12.09212 11.569632,-8.70076 0.11761,0.0516 0.31687,-0.44614 1.01652,-2.53934 1.07556,-3.2178 2.87339,-8.4419 4.17228,-12.12373 0.53927,-1.52861 0.99919,-2.88901 1.02205,-3.0231 0.19088,-1.1199 -7.36633,-7.39625 -12.89093,-10.70607 -30.722492,-18.40598 -76.418002,2.41324 -65.620292,29.89712 4.47178,11.38222 15.61728,17.26305 30.48993,16.14183 1.16839,-0.12676 1.83591,-0.1593 3.38777,-0.4733 0.93863,-0.13989 2.56233,-0.4289 3.60823,-0.64224 1.71719,-0.35027 3.16047,-0.68436 8.97179,-2.07678 4.7716,-1.1433 6.783,-1.45504 9.41063,-1.45851 3.73405,-0.005 4.59977,0.34211 12.092412,4.8476 6.55633,3.94246 9.69887,5.17076 13.21389,5.16481 2.82557,-0.005 5.65445,-1.15852 7.43586,-3.03267 2.20915,-2.56535 1.79403,-2.54909 2.18553,-4.67784 0.91119,-4.82146 -0.67871,-12.66274 -4.06002,-20.02374 -0.5843,-1.272 -0.5843,-1.272 -0.082,-2.01641 0.50232,-0.74442 0.50232,-0.74442 1.03167,0.37275 2.55801,5.39859 4.1124,10.23082 4.86083,15.11122 0.28637,1.86739 0.38128,5.27643 0.2271,6.87803 -0.0312,0.3237 -0.0474,0.90764 -0.36355,2.45946 -0.83634,4.10524 -1.81612,7.19385 -5.82309,9.08936 -4.52745,2.14172 -9.37767,1.48696 -16.25284,-2.19408 -0.94733,-0.50722 -1.75918,-0.92137 -1.80411,-0.92035 -0.0449,10e-4 -0.34004,0.71414 -0.65582,1.58469 -0.31578,0.87056 -0.69696,1.91196 -0.84707,2.31422 -0.15011,0.40227 -1.57486,4.26404 -3.166112,8.58172 -1.07756,2.92384 -2.04048,5.5068 -2.56481,6.88559 -0.203,0.58782 -0.6147,1.75213 -0.82795,2.40007 -0.57848,1.84649 -2.03277,5.20305 -2.45943,5.34386 -1.77172,0.58474 -2.10375,-0.57426 -1.07609,-3.75613 0.41574,-1.28726 1.39131,-4.31524 2.16791,-6.72884 0.77661,-2.41361 1.93973,-6.01208 2.58473,-7.9966 0.64499,-1.98452 1.31827,-4.05689 1.49618,-4.60527 0.2512,-0.77427 0.46442,-1.20062 0.95428,-1.90811 2.418782,-3.49345 2.337442,-3.35691 2.099282,-3.52372 -0.2683,-0.18793 -0.0495,-0.45058 -2.065142,2.47934 -0.94091,1.36771 -2.0136,2.92558 -2.38376,3.46194 -0.37016,0.53636 -2.18601,3.16938 -4.03523,5.85117 -4.72722,6.85554 -8.02133,11.62641 -8.85438,12.82381 -0.39181,0.56318 -0.94078,1.35308 -1.21992,1.75535 -0.27915,0.40227 -0.82848,1.19218 -1.22075,1.75535 -0.39226,0.56318 -0.83963,1.20888 -0.99415,1.43491 -0.62503,0.91429 -1.32006,1.07038 -2.18684,0.4911 z"
       id="path4624" /></g></svg>
